# xmcd CD database file
#
# Track frame offsets:
#	150
#	24979
#	46658
#	70061
#	89789
#	106067
#	125346
#	147999
#	167578
#	186406
#	210109
#
# Disc length: 2946 seconds
#
# Revision: 0
# Processed by: cddbd v1.5.1PL0 Copyright (c) Steve Scherf et al.
# Submitted via: CDex 1.51
#
DISCID=8d0b800b
DTITLE=BANDA RH - Pa´ Santiago
DYEAR=2005
DGENRE=Salsa
TTITLE0=El babalao
TTITLE1=El bueno (parodia)
TTITLE2=Pa' Santiago
TTITLE3=El pimpollo
TTITLE4=Tú robaste mi corazón
TTITLE5=La pecera
TTITLE6=Sólo tú
TTITLE7=Mi banda
TTITLE8=El postre
TTITLE9=Fantasma y perversa
TTITLE10=Eres mi luz
EXTD=YEAR: 2005
EXTT0=
EXTT1=
EXTT2=
EXTT3=
EXTT4=
EXTT5=
EXTT6=
EXTT7=
EXTT8=
EXTT9=
EXTT10=
PLAYORDER=
